<svg id="visual" viewBox="0 0 600 900" width="600" height="900" xmlns="http://www.w3.org/2000/svg" xmlns:xlink="http://www.w3.org/1999/xlink" version="1.1"><rect x="0" y="0" width="600" height="900" fill="#0a000b"></rect><g fill="#1a0018"><circle r="27" cx="296" cy="194"></circle><circle r="7" cx="79" cy="853"></circle><circle r="9" cx="315" cy="341"></circle><circle r="20" cx="425" cy="611"></circle><circle r="14" cx="570" cy="192"></circle><circle r="9" cx="81" cy="653"></circle><circle r="25" cx="141" cy="92"></circle><circle r="25" cx="423" cy="104"></circle><circle r="19" cx="372" cy="193"></circle><circle r="10" cx="128" cy="578"></circle><circle r="6" cx="534" cy="563"></circle><circle r="9" cx="33" cy="263"></circle><circle r="16" cx="561" cy="257"></circle><circle r="25" cx="226" cy="568"></circle><circle r="16" cx="22" cy="782"></circle><circle r="21" cx="216" cy="290"></circle><circle r="9" cx="151" cy="701"></circle><circle r="15" cx="283" cy="273"></circle><circle r="8" cx="102" cy="161"></circle></g></svg>